<svg width="103" height="111" viewBox="0 0 103 111" fill="none" xmlns="http://www.w3.org/2000/svg">
<path fill-rule="evenodd" clip-rule="evenodd" d="M41.0483 10.1548C51.3373 10.1548 59.7729 18.5687 59.7729 28.8309V43.0058H69.9539V28.8309C69.9541 12.9595 56.9547 0 41.0483 0C25.1419 0 12.1426 12.9595 12.1426 28.8309V43.0058H22.3236V28.8309C22.3238 18.5687 30.7594 10.1548 41.0483 10.1548Z" fill="#DEDBEE"/>
<path fill-rule="evenodd" clip-rule="evenodd" d="M69.9541 28.8309C69.9541 12.9595 56.9548 0 41.0484 0C37.7923 0 34.6566 0.544377 31.7305 1.54468C32.8984 1.39899 34.0853 1.32311 35.2914 1.32311C51.1977 1.32311 64.1971 14.2889 64.1971 30.1541V43.0058H69.9541V28.8309Z" fill="#D2CFE9"/>
<path fill-rule="evenodd" clip-rule="evenodd" d="M10.9175 41C4.91283 41 0 45.9 0 51.8893V68.0901C0 90.6092 18.4707 109.032 41.0481 109.032C48.7284 109.032 55.9325 106.899 62.0895 103.201L82.0962 64.5194V51.8893C82.0962 45.9003 77.1834 41 71.1788 41C51.0897 41 31.0067 41 10.9175 41Z" fill="#FDB441"/>
<path fill-rule="evenodd" clip-rule="evenodd" d="M82.3238 51.8893C82.3238 45.9003 77.411 41 71.4063 41H70.1812H64.4242H60C66.0046 41 70.9175 45.9 70.9175 51.8893V66.2226C72.2694 65.6591 73.6912 65.2097 75.1576 64.9058C76.7189 64.5767 78.3438 64.4056 80.0006 64.4056C80.7876 64.4056 81.562 64.4435 82.3238 64.5196V51.8893Z" fill="#FE9901"/>
<path d="M17.4384 72.3696V69.3222C17.4384 68.9438 17.5982 68.6036 17.8529 68.3625C17.616 68.1384 17.2972 68 16.9452 68C16.2152 68 15.623 68.5921 15.623 69.3222V71.3216L17.4384 72.3696Z" fill="#D73D24"/>
<path d="M20.083 72.3689L22.4475 71.0037C22.0333 70.6343 21.4138 70.5524 20.907 70.845L20.083 71.3208V72.3689Z" fill="#D73D24"/>
<path d="M20.083 76.9492V77.9973L20.907 78.473C21.1152 78.5931 21.3426 78.6504 21.5667 78.6504C21.8883 78.6504 22.2021 78.5308 22.446 78.3137L20.083 76.9492Z" fill="#D73D24"/>
<path d="M12.9926 77.9892C12.6276 77.3567 12.844 76.5482 13.4765 76.183L16.1156 74.6592L13.4765 73.1354C12.844 72.7702 12.6274 71.9615 12.9926 71.3292C13.0651 71.2036 13.1556 71.0952 13.2581 71.0038L12.9835 70.8453C12.3506 70.4802 11.5423 70.697 11.1774 71.3292C10.8125 71.9617 11.0289 72.7702 11.6613 73.1354L14.3004 74.6592L11.6613 76.183C11.0289 76.5482 10.8122 77.3569 11.1774 77.9892C11.4222 78.4134 11.8667 78.6505 12.3237 78.6505C12.5481 78.6505 12.7755 78.5934 12.9835 78.4731L13.2599 78.3135C13.1569 78.2221 13.0653 78.115 12.9926 77.9892Z" fill="#D73D24"/>
<path d="M17.4382 79.9967V76.9492L15.623 77.9973V79.9967C15.623 80.7267 16.2152 81.3189 16.9452 81.3189C17.2972 81.3189 17.616 81.1805 17.8529 80.9564C17.5982 80.7155 17.4382 80.375 17.4382 79.9967Z" fill="#D73D24"/>
<path d="M28.1625 77.9894C27.7975 77.3569 28.0139 76.5484 28.6464 76.1833L31.2855 74.6594L28.6464 73.1356C28.0139 72.7704 27.7973 71.9617 28.1625 71.3295C28.235 71.2039 28.3255 71.0954 28.428 71.004L28.1534 70.8453C27.5205 70.4802 26.7125 70.697 26.3473 71.3292C25.9824 71.9617 26.1988 72.7702 26.8312 73.1354L29.4703 74.6592L26.8312 76.183C26.1988 76.5482 25.9822 77.3569 26.3473 77.9892C26.5921 78.4134 27.0366 78.6505 27.4937 78.6505C27.718 78.6505 27.9454 78.5934 28.1534 78.4731L28.4298 78.3135C28.3269 78.2223 28.2352 78.1152 28.1625 77.9894Z" fill="#D73D24"/>
<path d="M35.252 72.3689L37.6165 71.0037C37.2022 70.6343 36.5827 70.5524 36.0759 70.845L35.252 71.3208V72.3689Z" fill="#D73D24"/>
<path d="M32.6074 72.3696V69.3222C32.6074 68.9438 32.7671 68.6036 33.0219 68.3625C32.785 68.1384 32.4661 68 32.1142 68C31.3841 68 30.792 68.5921 30.792 69.3222V71.3216L32.6074 72.3696Z" fill="#D73D24"/>
<path d="M32.6071 79.9967V76.9492L30.792 77.9973V79.9967C30.792 80.7267 31.3841 81.3189 32.1142 81.3189C32.4661 81.3189 32.785 81.1805 33.0219 80.9564C32.7669 80.7155 32.6071 80.375 32.6071 79.9967Z" fill="#D73D24"/>
<path d="M35.252 76.9492V77.9973L36.0759 78.473C36.2841 78.5931 36.5116 78.6504 36.7357 78.6504C37.0572 78.6504 37.371 78.5308 37.6149 78.3137L35.252 76.9492Z" fill="#D73D24"/>
<path d="M50.4219 72.3688L52.7864 71.0036C52.3721 70.6343 51.7527 70.5523 51.2458 70.8452L50.4219 71.321V72.3688Z" fill="#D73D24"/>
<path d="M47.7773 72.3696V69.3222C47.7773 68.9438 47.9371 68.6036 48.1918 68.3625C47.9549 68.1384 47.636 68 47.2841 68C46.554 68 45.9619 68.5921 45.9619 69.3222V71.3216L47.7773 72.3696Z" fill="#D73D24"/>
<path d="M43.3324 77.9894C42.9675 77.3569 43.1839 76.5484 43.8163 76.1833L46.4554 74.6594L43.8163 73.1356C43.1839 72.7704 42.9673 71.9617 43.3324 71.3295C43.4049 71.2039 43.4955 71.0954 43.5979 71.004L43.3234 70.8453C42.6905 70.4802 41.8824 70.697 41.5172 71.3292C41.1523 71.9617 41.3687 72.7702 42.0012 73.1354L44.6403 74.6592L42.0012 76.183C41.3687 76.5482 41.1521 77.3569 41.5172 77.9892C41.7621 78.4134 42.2065 78.6505 42.6636 78.6505C42.8879 78.6505 43.1153 78.5934 43.3234 78.4731L43.5997 78.3135C43.4968 78.2223 43.4051 78.1152 43.3324 77.9894Z" fill="#D73D24"/>
<path d="M50.4219 76.9492V77.9973L51.2458 78.473C51.4541 78.5931 51.6815 78.6504 51.9056 78.6504C52.2271 78.6504 52.5409 78.5308 52.7849 78.3137L50.4219 76.9492Z" fill="#D73D24"/>
<path d="M47.7771 79.9967V76.9492L45.9619 77.9973V79.9967C45.9619 80.7267 46.554 81.3189 47.2841 81.3189C47.636 81.3189 47.9549 81.1805 48.1918 80.9564C47.9368 80.7155 47.7771 80.375 47.7771 79.9967Z" fill="#D73D24"/>
<path d="M24.5477 71.3297C24.1827 70.6975 23.3738 70.4804 22.7415 70.8458L20.1022 72.3696V69.3222C20.1022 68.5921 19.5101 68 18.78 68C18.0499 68 17.4578 68.5921 17.4578 69.3222V72.3696L14.8185 70.8458C14.1856 70.4807 13.3773 70.6975 13.0124 71.3297C12.6474 71.9622 12.8638 72.7707 13.4963 73.1359L16.1354 74.6597L13.4963 76.1835C12.8638 76.5487 12.6472 77.3574 13.0124 77.9896C13.2572 78.4139 13.7017 78.651 14.1587 78.651C14.383 78.651 14.6105 78.5939 14.8185 78.4736L17.4578 76.9497V79.9972C17.4578 80.7273 18.0499 81.3194 18.78 81.3194C19.5101 81.3194 20.1022 80.7273 20.1022 79.9972V76.9497L22.7415 78.4736C22.9498 78.5937 23.1772 78.651 23.4013 78.651C23.8583 78.651 24.3028 78.4139 24.5477 77.9896C24.9126 77.3572 24.6962 76.5487 24.0637 76.1835L21.4246 74.6597L24.0637 73.1359C24.6962 72.7707 24.9126 71.9622 24.5477 71.3297Z" fill="white"/>
<path d="M39.7176 71.3297C39.3527 70.6975 38.5437 70.4804 37.9115 70.8458L35.2721 72.3696V69.3222C35.2721 68.5921 34.68 68 33.9499 68C33.2199 68 32.6277 68.5921 32.6277 69.3222V72.3696L29.9884 70.8458C29.3555 70.4807 28.5474 70.6975 28.1823 71.3297C27.8174 71.9622 28.0338 72.7707 28.6662 73.1359L31.3053 74.6597L28.6662 76.1835C28.0338 76.5487 27.8171 77.3574 28.1823 77.9896C28.4271 78.4139 28.8716 78.651 29.3286 78.651C29.553 78.651 29.7804 78.5939 29.9884 78.4736L32.6277 76.9497V79.9972C32.6277 80.7273 33.2199 81.3194 33.9499 81.3194C34.68 81.3194 35.2721 80.7273 35.2721 79.9972V76.9497L37.9115 78.4736C38.1197 78.5937 38.3471 78.651 38.5712 78.651C39.0283 78.651 39.4728 78.4139 39.7176 77.9896C40.0825 77.3572 39.8661 76.5487 39.2337 76.1835L36.5945 74.6597L39.2337 73.1359C39.8661 72.7707 40.0825 71.9622 39.7176 71.3297Z" fill="white"/>
<path d="M54.8875 71.3297C54.5226 70.6975 53.7138 70.4804 53.0814 70.8458L50.4421 72.3696V69.3222C50.4421 68.5921 49.8499 68 49.1199 68C48.3898 68 47.7977 68.5921 47.7977 69.3222V72.3696L45.1583 70.8458C44.5254 70.4807 43.7173 70.6975 43.3522 71.3297C42.9873 71.9622 43.2037 72.7707 43.8361 73.1359L46.4752 74.6597L43.8361 76.1835C43.2037 76.5487 42.9871 77.3574 43.3522 77.9896C43.597 78.4139 44.0415 78.651 44.4985 78.651C44.7229 78.651 44.9503 78.5939 45.1583 78.4736L47.7977 76.9497V79.9972C47.7977 80.7273 48.3898 81.3194 49.1199 81.3194C49.8499 81.3194 50.4421 80.7273 50.4421 79.9972V76.9497L53.0814 78.4736C53.2896 78.5937 53.517 78.651 53.7412 78.651C54.1982 78.651 54.6427 78.4139 54.8875 77.9896C55.2524 77.3572 55.036 76.5487 54.4036 76.1835L51.7645 74.6597L54.4036 73.1359C55.036 72.7707 55.2524 71.9622 54.8875 71.3297Z" fill="white"/>
<path fill-rule="evenodd" clip-rule="evenodd" d="M79.4661 64C66.5049 64 56 74.4776 56 87.4054C56 93.2994 58.1836 98.6808 61.7824 102.796C66.0858 107.709 72.4141 110.817 79.4661 110.817C92.4273 110.817 102.938 100.333 102.938 87.4054C102.938 75.2626 93.665 65.2789 81.7893 64.114C81.0275 64.0379 80.2531 64 79.4661 64Z" fill="#26B8AF"/>
<path fill-rule="evenodd" clip-rule="evenodd" d="M102.938 87.4054C102.938 75.2626 93.665 65.2789 81.7893 64.114C81.0277 64.0382 80.2533 64 79.4661 64C77.8095 64 76.1844 64.1708 74.623 64.5002C86.4671 65.6904 95.7152 75.6615 95.7152 87.7915C95.7152 99.0606 87.7239 108.468 77.0921 110.697C77.8728 110.773 78.6663 110.817 79.4661 110.817C92.4273 110.817 102.938 100.333 102.938 87.4054Z" fill="#009B92"/>
<path d="M70 89.6551V86.2874C70 85.9457 70.2777 85.6609 70.6265 85.6609H77.668V78.6265C77.668 78.2848 77.9457 78 78.2945 78H81.6622C82.0039 78 82.2816 78.2777 82.2816 78.6265V85.668H89.316C89.6577 85.668 89.9425 85.9457 89.9425 86.2945V89.6622C89.9425 90.004 89.6648 90.2816 89.316 90.2816H82.2745V97.316C82.2745 97.6577 81.9968 97.9425 81.6551 97.9425H78.2874C77.9457 97.9425 77.6609 97.6648 77.6609 97.316V90.2745H70.6265C70.2777 90.2816 70 89.9968 70 89.6551Z" fill="white"/>
</svg>
