<svg width="123" height="119" viewBox="0 0 123 119" fill="none" xmlns="http://www.w3.org/2000/svg">
<rect width="123" height="119" fill="white"/>
<path fill-rule="evenodd" clip-rule="evenodd" d="M50.3209 10.8866C61.3256 10.8866 70.348 19.9069 70.348 30.9089V46.1053H81.2372V30.9089C81.2375 13.8935 67.3338 0 50.3209 0C33.308 0 19.4043 13.8935 19.4043 30.9089V46.1053H30.2935V30.9089C30.2938 19.9069 39.3162 10.8866 50.3209 10.8866Z" fill="#DEDBEE"/>
<path fill-rule="evenodd" clip-rule="evenodd" d="M81.2372 30.9089C81.2372 13.8935 67.3335 0 50.3206 0C46.838 0 43.4842 0.583611 40.3545 1.65601C41.6036 1.49982 42.8732 1.41847 44.1631 1.41847C61.176 1.41847 75.0797 15.3187 75.0797 32.3273V46.1053H81.2372V30.9089Z" fill="#D2CFE9"/>
<path fill-rule="evenodd" clip-rule="evenodd" d="M18.0939 43.7168C11.6716 43.7168 6.41699 48.97 6.41699 55.3909V72.7593C6.41699 96.9014 26.1726 116.652 50.3206 116.652C58.5351 116.652 66.2405 114.365 72.8258 110.401L94.2242 68.9313V55.3909C94.2242 48.9702 88.9697 43.7168 82.5473 43.7168C61.0608 43.7168 39.5807 43.7168 18.0939 43.7168Z" fill="#FDB441"/>
<path fill-rule="evenodd" clip-rule="evenodd" d="M50.3209 60.793C45.073 60.793 40.8164 65.0416 40.8164 70.2883C40.8164 73.6752 42.5882 76.6411 45.2495 78.3311L43.2546 91.3262C43.1897 91.7485 43.5157 92.1295 43.9421 92.1295H56.6991C57.1256 92.1295 57.4516 91.7485 57.3867 91.3262L55.3918 78.3311C58.0531 76.6411 59.8249 73.675 59.8249 70.2883C59.8253 65.0416 55.5687 60.793 50.3209 60.793Z" fill="#26B8AF"/>
<path fill-rule="evenodd" clip-rule="evenodd" d="M91.7401 68.8086C77.8773 68.8086 66.6416 80.0413 66.6416 93.9009C66.6416 100.22 68.9771 105.989 72.8263 110.4C77.429 115.667 84.1976 119 91.7401 119C105.603 119 116.845 107.76 116.845 93.9009C116.845 80.8829 106.927 70.1797 94.2249 68.9308C93.4101 68.8493 92.5818 68.8086 91.7401 68.8086Z" fill="#26B8AF"/>
<path fill-rule="evenodd" clip-rule="evenodd" d="M48.7588 60.9152C52.3297 62.3065 54.8688 65.8223 54.8688 69.9355C54.8688 73.3765 53.097 76.3901 50.4357 78.1072L52.5539 92.1295H56.699C57.1254 92.1295 57.4514 91.7485 57.3865 91.3262L55.3917 78.3311C58.0529 76.6411 59.8247 73.675 59.8247 70.2883C59.8247 65.0419 55.5681 60.793 50.3203 60.793C49.7909 60.793 49.268 60.8336 48.7588 60.9152Z" fill="#009B92"/>
<path fill-rule="evenodd" clip-rule="evenodd" d="M116.845 93.9009C116.845 80.8829 106.926 70.1797 94.2243 68.9308C93.4097 68.8495 92.5814 68.8086 91.7395 68.8086C89.9677 68.8086 88.2296 68.9917 86.5596 69.3448C99.2276 70.6208 109.119 81.3106 109.119 94.3148C109.119 106.396 100.572 116.482 89.2004 118.871C90.0354 118.952 90.8841 119 91.7395 119C105.602 119 116.845 107.76 116.845 93.9009Z" fill="#009B92"/>
<path fill-rule="evenodd" clip-rule="evenodd" d="M94.2244 55.3909C94.2244 48.9702 88.9698 43.7168 82.5475 43.7168H81.2371H75.0796H70.3477C76.77 43.7168 82.0246 48.97 82.0246 55.3909V70.7572C83.4706 70.1532 84.9912 69.6713 86.5597 69.3455C88.2297 68.9927 89.9676 68.8093 91.7396 68.8093C92.5813 68.8093 93.4096 68.85 94.2244 68.9315V55.3909Z" fill="#FE9901"/>
<path d="M91.7394 103.739C90.7498 103.739 89.9479 102.935 89.9479 101.943V93.8661C89.9479 92.8744 90.75 92.0704 91.7394 92.0704C93.3885 92.0704 94.921 91.4108 96.0554 90.2136C97.1811 89.025 97.7543 87.4678 97.6692 85.8285C97.5079 82.7431 94.9588 80.2766 91.8663 80.2141C91.825 80.2132 91.7835 80.2127 91.7422 80.2127C88.7855 80.2127 86.2699 82.3842 85.8629 85.3111C85.8251 85.5917 85.8056 85.8738 85.8056 86.1423C85.8056 87.134 85.0036 87.938 84.0142 87.938C83.0247 87.938 82.2227 87.134 82.2227 86.1423C82.2227 85.7134 82.2533 85.2693 82.3133 84.8226C82.9777 80.0458 87.1141 76.5284 91.9393 76.623C96.8992 76.7234 100.988 80.6845 101.248 85.6409C101.385 88.2743 100.464 90.7761 98.6545 92.6861C97.279 94.138 95.474 95.1147 93.5314 95.4898V101.943C93.5309 102.935 92.7291 103.739 91.7394 103.739Z" fill="#F4EAFA"/>
<path d="M91.7422 111.186C91.6443 111.186 91.5453 111.178 91.4453 111.161C90.4696 110.998 89.8101 110.073 89.9729 109.094L89.9796 109.054C90.1422 108.076 91.063 107.414 92.0413 107.578C93.017 107.741 93.6765 108.666 93.5139 109.644L93.5072 109.685C93.3611 110.563 92.6022 111.186 91.7422 111.186Z" fill="#F4EAFA"/>
</svg>
