<svg width="224" height="224" viewBox="0 0 224 224" fill="none" xmlns="http://www.w3.org/2000/svg">
<path d="M111.543 223.088C81.9603 223.088 53.5888 211.336 32.6703 190.417C11.7519 169.499 0 141.127 0 111.544C0 81.9609 11.7519 53.5894 32.6703 32.6709C53.5888 11.7525 81.9603 0.000599224 111.543 0.000598783C128.926 -0.0569451 146.072 4.03384 161.556 11.9332C162.469 12.3964 163.282 13.035 163.948 13.8124C164.615 14.5898 165.121 15.4908 165.439 16.4639C165.757 17.4371 165.88 18.4633 165.801 19.4841C165.723 20.5048 165.444 21.5001 164.981 22.4131C164.517 23.326 163.879 24.1388 163.101 24.8049C162.324 25.4711 161.423 25.9776 160.45 26.2956C159.477 26.6135 158.45 26.7367 157.43 26.6581C156.409 26.5794 155.414 26.3005 154.501 25.8372C141.218 18.9914 126.486 15.433 111.543 15.461C92.565 15.4611 74.0125 21.0875 58.2311 31.6293C42.4496 42.1711 30.1477 57.1548 22.8802 74.6867C15.6127 92.2186 13.7059 111.512 17.4009 130.127C21.0959 148.742 30.2267 165.844 43.6393 179.271C57.0519 192.698 74.144 201.848 92.7553 205.563C111.367 209.278 130.662 207.392 148.201 200.143C165.741 192.895 180.738 180.609 191.297 164.839C201.856 149.069 207.502 130.523 207.523 111.544C207.577 110.68 207.577 109.814 207.523 108.95C207.33 106.886 207.965 104.83 209.288 103.235C210.612 101.639 212.515 100.634 214.579 100.442C216.642 100.249 218.698 100.884 220.294 102.207C221.89 103.531 222.894 105.433 223.087 107.497V111.544C223.06 141.119 211.299 169.474 190.386 190.387C169.474 211.299 141.118 223.06 111.543 223.088Z" fill="#26B8AF"/>
<path d="M109.675 146.927C108.666 146.942 107.666 146.747 106.737 146.354C105.808 145.961 104.971 145.379 104.279 144.644L54.1626 95.4613C52.7053 94.0022 51.8867 92.0242 51.8867 89.962C51.8867 87.8997 52.7053 85.9218 54.1626 84.4626C55.6523 83.0235 57.6426 82.2191 59.7139 82.2191C61.7851 82.2191 63.7754 83.0235 65.2651 84.4626L109.779 128.354L209.908 29.8841C211.398 28.445 213.388 27.6406 215.46 27.6406C217.531 27.6406 219.521 28.445 221.011 29.8841C222.468 31.3433 223.287 33.3212 223.287 35.3835C223.287 37.4457 222.468 39.4237 221.011 40.8828L115.382 144.644C114.639 145.397 113.749 145.989 112.767 146.382C111.785 146.774 110.732 146.96 109.675 146.927Z" fill="#26B8AF"/>
</svg>
