<svg width="133" height="111" viewBox="0 0 133 111" fill="none" xmlns="http://www.w3.org/2000/svg">
<path d="M33.8337 44.647C33.8337 42.7522 35.3752 41.2104 37.27 41.2104H42.4734V29.39C42.4734 28.3681 42.5347 27.3604 42.6502 26.3687C42.1236 26.1336 41.5416 26 40.9276 26H4.23386C1.89557 26.0002 0 27.8958 0 30.2341V66.9276C0 69.2659 1.89557 71.1614 4.23386 71.1614H33.8337V44.647Z" fill="#26B8AF"/>
<path d="M11.2903 66.9273V30.2339C11.2903 27.8956 13.1859 26 15.5242 26H4.23386C1.89557 26 0 27.8956 0 30.2339V66.9273C0 69.2656 1.89557 71.1612 4.23386 71.1612H15.5242C13.1859 71.1612 11.2903 69.2656 11.2903 66.9273Z" fill="#009B92"/>
<path d="M19.5451 57.0889C18.8706 56.7348 18.4098 56.0288 18.4098 55.2142V52.4464C18.4098 50.315 20.144 48.5811 22.2752 48.5811C25.4307 48.5811 27.9979 46.0139 27.9979 42.8583V42.7075C27.9979 39.7208 25.5681 37.291 22.5812 37.291C22.2459 37.291 21.9182 37.3232 21.5995 37.3818C24.1191 37.8452 26.0344 40.0562 26.0344 42.7077V42.8586C26.0344 46.0141 23.4674 48.5813 20.3117 48.5813C18.1804 48.5813 16.4463 50.3152 16.4463 52.4467V55.2145C16.4463 56.3836 17.394 57.3313 18.5631 57.3313C18.9179 57.3313 19.2516 57.2431 19.5451 57.0889Z" fill="#717272"/>
<path d="M12.9303 43.307V42.7074C12.9303 37.7174 16.7373 33.6 21.5991 33.1064C21.2763 33.0737 20.9489 33.0566 20.6174 33.0566C15.296 33.0566 10.9668 37.3859 10.9668 42.7072V43.3068C10.9668 44.4759 11.9145 45.4236 13.0836 45.4236C13.4382 45.4236 13.7718 45.3354 14.0654 45.1812C13.3911 44.8276 12.9303 44.1216 12.9303 43.307Z" fill="#717272"/>
<path d="M18.4096 61.9872V61.7049C18.4096 60.8904 18.8703 60.1844 19.5449 59.8303C19.2513 59.6763 18.9177 59.5879 18.5631 59.5879C17.394 59.5879 16.4463 60.5358 16.4463 61.7047V61.987C16.4463 63.1561 17.394 64.1038 18.5631 64.1038C18.9177 64.1038 19.2513 64.0156 19.5449 63.8614C18.8703 63.508 18.4096 62.8018 18.4096 61.9872Z" fill="#717272"/>
<path d="M20.5266 57.3308C19.3572 57.3308 18.4098 56.3829 18.4098 55.214V52.4462C18.4098 50.3147 20.144 48.5808 22.2752 48.5808C25.4307 48.5808 27.9977 46.0136 27.9977 42.8581V42.7072C27.9977 39.7203 25.5679 37.2905 22.581 37.2905C19.5941 37.2905 17.1643 39.7203 17.1643 42.7072V43.3068C17.1643 44.4759 16.2166 45.4236 15.0475 45.4236C13.8781 45.4236 12.9307 44.4757 12.9307 43.3068V42.7072C12.9307 37.3859 17.2599 33.0566 22.5812 33.0566C27.9026 33.0566 32.2318 37.3859 32.2318 42.7072V42.8581C32.2318 48.2248 27.9641 52.6134 22.6439 52.8079V55.214C22.6434 56.3829 21.696 57.3308 20.5266 57.3308Z" fill="white"/>
<path d="M20.527 64.1057C19.3576 64.1057 18.4102 63.1578 18.4102 61.9889V61.7067C18.4102 60.5375 19.3578 59.5898 20.527 59.5898C21.6961 59.5898 22.6438 60.5377 22.6438 61.7067V61.9889C22.6438 63.1578 21.6964 64.1057 20.527 64.1057Z" fill="white"/>
<path fill-rule="evenodd" clip-rule="evenodd" d="M70.0483 10.1548C80.3373 10.1548 88.7729 18.5687 88.7729 28.8309V43.0058H98.9539V28.8309C98.9541 12.9595 85.9547 0 70.0483 0C54.1419 0 41.1426 12.9595 41.1426 28.8309V43.0058H51.3236V28.8309C51.3238 18.5687 59.7594 10.1548 70.0483 10.1548Z" fill="#DEDBEE"/>
<path fill-rule="evenodd" clip-rule="evenodd" d="M98.9541 28.8309C98.9541 12.9595 85.9548 0 70.0484 0C66.7923 0 63.6566 0.544377 60.7305 1.54468C61.8984 1.39899 63.0853 1.32311 64.2914 1.32311C80.1977 1.32311 93.1971 14.2889 93.1971 30.1541V43.0058H98.9541V28.8309Z" fill="#D2CFE9"/>
<path fill-rule="evenodd" clip-rule="evenodd" d="M39.9175 40.7773C33.9128 40.7773 29 45.6774 29 51.6666V67.8674C29 90.3865 47.4707 108.81 70.0481 108.81C77.7284 108.81 84.9325 106.676 91.0895 102.979L111.096 64.2968V51.6666C111.096 45.6776 106.183 40.7773 100.179 40.7773C80.0897 40.7773 60.0067 40.7773 39.9175 40.7773Z" fill="#FDB441"/>
<path fill-rule="evenodd" clip-rule="evenodd" d="M70.0484 56.707C65.1419 56.707 61.1621 60.6701 61.1621 65.5641C61.1621 68.7232 62.8187 71.4898 65.3068 73.0661L63.4417 85.1876C63.381 85.5816 63.6858 85.9369 64.0845 85.9369H76.0118C76.4105 85.9369 76.7153 85.5816 76.6546 85.1876L74.7895 73.0661C77.2777 71.4898 78.9343 68.723 78.9343 65.5641C78.9347 60.6701 74.9549 56.707 70.0484 56.707Z" fill="#26B8AF"/>
<path fill-rule="evenodd" clip-rule="evenodd" d="M68.5879 56.8211C71.9266 58.1188 74.3005 61.3983 74.3005 65.235C74.3005 68.4446 72.6439 71.2556 70.1558 72.8573L72.1362 85.9369H76.0117C76.4104 85.9369 76.7152 85.5816 76.6545 85.1876L74.7894 73.0661C77.2775 71.4898 78.9341 68.723 78.9341 65.5641C78.9341 60.6703 74.9543 56.707 70.0478 56.707C69.5529 56.707 69.064 56.745 68.5879 56.8211Z" fill="#009B92"/>
<path fill-rule="evenodd" clip-rule="evenodd" d="M111.096 51.6666C111.096 45.6776 106.183 40.7773 100.179 40.7773H98.9537H93.1966H88.7725C94.7771 40.7773 99.6899 45.6774 99.6899 51.6666V65.9999C101.042 65.4365 102.464 64.9871 103.93 64.6831C105.491 64.354 107.116 64.183 108.773 64.183C109.56 64.183 110.334 64.2209 111.096 64.297V51.6666Z" fill="#FE9901"/>
<path fill-rule="evenodd" clip-rule="evenodd" d="M108.773 64.1836C95.8115 64.1836 85.3066 74.6612 85.3066 87.589C85.3066 93.483 87.4902 98.8644 91.089 102.979C95.3925 107.892 101.721 111.001 108.773 111.001C121.734 111.001 132.245 100.517 132.245 87.589C132.245 75.4462 122.972 65.4625 111.096 64.2976C110.334 64.2215 109.56 64.1836 108.773 64.1836Z" fill="#26B8AF"/>
<path fill-rule="evenodd" clip-rule="evenodd" d="M132.245 87.589C132.245 75.4462 122.972 65.4625 111.096 64.2976C110.334 64.2218 109.56 64.1836 108.773 64.1836C107.116 64.1836 105.491 64.3544 103.93 64.6837C115.774 65.874 125.022 75.8451 125.022 87.9751C125.022 99.2442 117.031 108.652 106.399 110.88C107.179 110.956 107.973 111.001 108.773 111.001C121.734 111.001 132.245 100.517 132.245 87.589Z" fill="#009B92"/>
<path d="M94.6663 87.1668V84.9582C94.6663 84.684 94.782 84.4374 94.9667 84.2627C94.795 84.1003 94.5639 84 94.3088 84C93.7797 84 93.3506 84.4291 93.3506 84.9582V86.4073L94.6663 87.1668Z" fill="#717272"/>
<path d="M96.582 87.1663L98.2957 86.1769C97.9954 85.9092 97.5465 85.8498 97.1792 86.0619L96.582 86.4067V87.1663Z" fill="#717272"/>
<path d="M96.582 90.4863V91.2459L97.1792 91.5907C97.3301 91.6777 97.4949 91.7193 97.6573 91.7193C97.8904 91.7193 98.1178 91.6325 98.2946 91.4752L96.582 90.4863Z" fill="#717272"/>
<path d="M91.4441 91.2395C91.1796 90.7811 91.3364 90.1952 91.7948 89.9305L93.7074 88.8262L91.7948 87.7218C91.3364 87.4572 91.1794 86.871 91.4441 86.4128C91.4966 86.3218 91.5623 86.2432 91.6365 86.177L91.4375 86.0621C90.9788 85.7975 90.393 85.9546 90.1286 86.4128C89.8641 86.8712 90.0209 87.4572 90.4793 87.7218L92.3919 88.8262L90.4793 89.9305C90.0209 90.1952 89.8639 90.7813 90.1286 91.2395C90.306 91.5469 90.6281 91.7188 90.9594 91.7188C91.1219 91.7188 91.2868 91.6774 91.4375 91.5902L91.6378 91.4746C91.5632 91.4083 91.4968 91.3307 91.4441 91.2395Z" fill="#717272"/>
<path d="M94.6661 92.6949V90.4863L93.3506 91.2459V92.6949C93.3506 93.224 93.7797 93.6532 94.3088 93.6532C94.5639 93.6532 94.795 93.5529 94.9667 93.3904C94.782 93.2159 94.6661 92.9691 94.6661 92.6949Z" fill="#717272"/>
<path d="M102.438 91.2397C102.174 90.7813 102.331 90.1953 102.789 89.9307L104.702 88.8263L102.789 87.722C102.331 87.4573 102.174 86.8712 102.438 86.413C102.491 86.322 102.556 86.2434 102.631 86.1771L102.432 86.0621C101.973 85.7975 101.387 85.9546 101.123 86.4128C100.858 86.8712 101.015 87.4572 101.473 87.7218L103.386 88.8262L101.473 89.9305C101.015 90.1952 100.858 90.7813 101.123 91.2395C101.3 91.5469 101.622 91.7188 101.953 91.7188C102.116 91.7188 102.281 91.6774 102.432 91.5902L102.632 91.4746C102.557 91.4085 102.491 91.3308 102.438 91.2397Z" fill="#717272"/>
<path d="M107.576 87.1663L109.29 86.1769C108.99 85.9092 108.541 85.8498 108.173 86.0619L107.576 86.4067V87.1663Z" fill="#717272"/>
<path d="M105.659 87.1668V84.9582C105.659 84.684 105.775 84.4374 105.96 84.2627C105.788 84.1003 105.557 84 105.302 84C104.773 84 104.344 84.4291 104.344 84.9582V86.4073L105.659 87.1668Z" fill="#717272"/>
<path d="M105.659 92.6949V90.4863L104.344 91.2459V92.6949C104.344 93.224 104.773 93.6532 105.302 93.6532C105.557 93.6532 105.788 93.5529 105.96 93.3904C105.775 93.2159 105.659 92.9691 105.659 92.6949Z" fill="#717272"/>
<path d="M107.576 90.4863V91.2459L108.173 91.5907C108.324 91.6777 108.489 91.7193 108.651 91.7193C108.884 91.7193 109.112 91.6325 109.289 91.4752L107.576 90.4863Z" fill="#717272"/>
<path d="M118.57 87.1662L120.284 86.1769C119.984 85.9092 119.535 85.8498 119.167 86.062L118.57 86.4068V87.1662Z" fill="#717272"/>
<path d="M116.654 87.1668V84.9582C116.654 84.684 116.769 84.4374 116.954 84.2627C116.782 84.1003 116.551 84 116.296 84C115.767 84 115.338 84.4291 115.338 84.9582V86.4073L116.654 87.1668Z" fill="#717272"/>
<path d="M113.432 91.2397C113.168 90.7813 113.325 90.1953 113.783 89.9307L115.696 88.8263L113.783 87.722C113.325 87.4573 113.168 86.8712 113.432 86.413C113.485 86.322 113.551 86.2434 113.625 86.1771L113.426 86.0621C112.967 85.7975 112.381 85.9546 112.117 86.4128C111.852 86.8712 112.009 87.4572 112.468 87.7218L114.38 88.8262L112.468 89.9305C112.009 90.1952 111.852 90.7813 112.117 91.2395C112.294 91.5469 112.616 91.7188 112.948 91.7188C113.11 91.7188 113.275 91.6774 113.426 91.5902L113.626 91.4746C113.551 91.4085 113.485 91.3308 113.432 91.2397Z" fill="#717272"/>
<path d="M118.57 90.4863V91.2459L119.167 91.5907C119.318 91.6777 119.483 91.7193 119.646 91.7193C119.879 91.7193 120.106 91.6325 120.283 91.4752L118.57 90.4863Z" fill="#717272"/>
<path d="M116.653 92.6949V90.4863L115.338 91.2459V92.6949C115.338 93.224 115.767 93.6532 116.296 93.6532C116.551 93.6532 116.782 93.5529 116.954 93.3904C116.769 93.2159 116.653 92.9691 116.653 92.6949Z" fill="#717272"/>
<path d="M99.8177 86.4132C99.5532 85.955 98.9669 85.7977 98.5087 86.0625L96.5959 87.1668V84.9582C96.5959 84.4291 96.1668 84 95.6377 84C95.1086 84 94.6794 84.4291 94.6794 84.9582V87.1668L92.7666 86.0625C92.3079 85.7978 91.7221 85.955 91.4577 86.4132C91.1932 86.8715 91.35 87.4575 91.8084 87.7221L93.721 88.8265L91.8084 89.9309C91.35 90.1955 91.193 90.7816 91.4577 91.2398C91.6351 91.5473 91.9572 91.7191 92.2885 91.7191C92.451 91.7191 92.6159 91.6777 92.7666 91.5905L94.6794 90.4862V92.6948C94.6794 93.2239 95.1086 93.653 95.6377 93.653C96.1668 93.653 96.5959 93.2239 96.5959 92.6948V90.4862L98.5087 91.5905C98.6596 91.6776 98.8245 91.7191 98.9869 91.7191C99.3181 91.7191 99.6402 91.5473 99.8177 91.2398C100.082 90.7815 99.9253 90.1955 99.467 89.9309L97.5543 88.8265L99.467 87.7221C99.9253 87.4575 100.082 86.8715 99.8177 86.4132Z" fill="white"/>
<path d="M110.812 86.4132C110.547 85.955 109.961 85.7977 109.503 86.0625L107.59 87.1668V84.9582C107.59 84.4291 107.161 84 106.632 84C106.103 84 105.674 84.4291 105.674 84.9582V87.1668L103.761 86.0625C103.302 85.7978 102.716 85.955 102.452 86.4132C102.187 86.8715 102.344 87.4575 102.803 87.7221L104.715 88.8265L102.803 89.9309C102.344 90.1955 102.187 90.7816 102.452 91.2398C102.629 91.5473 102.951 91.7191 103.283 91.7191C103.445 91.7191 103.61 91.6777 103.761 91.5905L105.674 90.4862V92.6948C105.674 93.2239 106.103 93.653 106.632 93.653C107.161 93.653 107.59 93.2239 107.59 92.6948V90.4862L109.503 91.5905C109.654 91.6776 109.819 91.7191 109.981 91.7191C110.312 91.7191 110.634 91.5473 110.812 91.2398C111.076 90.7815 110.919 90.1955 110.461 89.9309L108.548 88.8265L110.461 87.7221C110.919 87.4575 111.076 86.8715 110.812 86.4132Z" fill="white"/>
<path d="M121.806 86.4132C121.541 85.955 120.955 85.7977 120.497 86.0625L118.584 87.1668V84.9582C118.584 84.4291 118.155 84 117.626 84C117.097 84 116.668 84.4291 116.668 84.9582V87.1668L114.755 86.0625C114.296 85.7978 113.711 85.955 113.446 86.4132C113.181 86.8715 113.338 87.4575 113.797 87.7221L115.709 88.8265L113.797 89.9309C113.338 90.1955 113.181 90.7816 113.446 91.2398C113.623 91.5473 113.946 91.7191 114.277 91.7191C114.439 91.7191 114.604 91.6777 114.755 91.5905L116.668 90.4862V92.6948C116.668 93.2239 117.097 93.653 117.626 93.653C118.155 93.653 118.584 93.2239 118.584 92.6948V90.4862L120.497 91.5905C120.648 91.6776 120.813 91.7191 120.975 91.7191C121.306 91.7191 121.629 91.5473 121.806 91.2398C122.07 90.7815 121.914 90.1955 121.455 89.9309L119.543 88.8265L121.455 87.7221C121.914 87.4575 122.07 86.8715 121.806 86.4132Z" fill="white"/>
</svg>
